# xmcd
#
# Track frame offsets: 
#        150
#        3803
#        19301
#        42890
#        54234
#        71072
#        85658
#        107081
#        130827
#        146183
#        173224
#        191644
#        198248
#
# Disc length: 2891 seconds
#
# Revision: 0
# Processed by: cddbd v1.5.2PL0 Copyright (c) Steve Scherf et al.
# Submitted via: ExactAudioCopy v1.3
#
DISCID=ad0b490d
DTITLE=Lee Murdock - Here We Stand
DYEAR=2012
DGENRE=
TTITLE0=Jefferson and Liberty
TTITLE1=Loyal She Remains
TTITLE2=Rebecca's Lament
TTITLE3=The Constitution and Guerriere ,The Shannon and Chesapeake
TTITLE4=Those Gullible Americans
TTITLE5=The Ballod of Ned Meyers
TTITLE6=Perry's Victory on Lake Erie
TTITLE7=Our Vanquished Hero
TTITLE8=The Burlington Races
TTITLE9=Here We'll Stand
TTITLE10=The Star-Spangled Banner
TTITLE11=Jackson's Victory
TTITLE12=Why Do They Have to Burn
EXTD=
EXTT0=
EXTT1=
EXTT2=
EXTT3=
EXTT4=
EXTT5=
EXTT6=
EXTT7=
EXTT8=
EXTT9=
EXTT10=
EXTT11=
EXTT12=
PLAYORDER=
